PathFileType	4	(X/Y/Z)	C:\Users\WrightLab\Desktop\Jo\P3_32.trc
DataRate	CameraRate	NumFrames	NumMarkers	Units	OrigDataRate	OrigDataStartFrame	OrigNumFrames
100.00	100.00	       12	19	mm	100.00	252	       671
Frame#	Time	Headset_Front			Headset_Back			Headset_Left			Headset_Right			Left_Shoulder			Right_Shoulder			Sternum			C7			Left Elbow			Right Elbow			Left Wrist			Right Wrist			Left ASIS			Right ASIS			S2			Left Knee			Right Knee			Left Ankle			Right Ankle			
		X1	Y1	Z1	X2	Y2	Z2	X3	Y3	Z3	X4	Y4	Z4	X5	Y5	Z5	X6	Y6	Z6	X7	Y7	Z7	X8	Y8	Z8	X9	Y9	Z9	X10	Y10	Z10	X11	Y11	Z11	X12	Y12	Z12	X13	Y13	Z13	X14	Y14	Z14	X15	Y15	Z15	X16	Y16	Z16	X17	Y17	Z17	X18	Y18	Z18	X19	Y19	Z19	

252	2.510	-584.49146	1484.10596	-619.39417	-642.82135	1578.48682	-905.70679				-709.63153	1511.81091	-705.58447	-440.49799	1299.09241	-854.44531	-805.72272	1317.83679	-839.18939	-620.43915	1208.30615	-699.58453	-628.39862	1355.76013	-898.97052	-387.98090	962.45795	-863.51013	-891.12335	978.76501	-869.56964	-412.39948	776.15411	-767.25348	-895.25275	792.71161	-739.77533	-539.19159	834.69275	-702.62592	-786.43329	828.74121	-726.55499	-644.39264	906.84674	-927.08868	-551.06311	425.31833	-652.05219	-790.63214	391.48141	-856.68884	-572.06024	93.02478	-650.67719				
253	2.520	-582.44379	1485.52466	-610.49945	-641.96313	1579.55957	-896.61420				-708.35852	1513.65222	-696.62439	-439.38098	1300.92554	-846.28302	-805.16278	1319.87549	-829.83453	-617.91919	1209.40002	-689.78192	-627.45502	1357.06177	-889.33173	-386.05554	963.92224	-855.06403	-890.60895	981.08673	-860.61987	-409.66956	777.74414	-757.68475	-894.37970	792.39569	-731.51257	-537.19324	836.29083	-693.84546	-787.17688	832.74036	-717.87299	-643.98755	908.34937	-917.28900	-550.65948	424.71899	-649.11334	-792.39789	394.83051	-828.21216	-571.57483	93.02492	-649.60345				
254	2.530	-580.51587	1486.48828	-601.39893	-640.94550	1581.04236	-887.82220				-707.07617	1514.43762	-687.42548	-438.71341	1302.93604	-838.91345	-803.90515	1321.46912	-820.21039	-616.98273	1211.90735	-680.60742	-626.69305	1357.91089	-880.68237	-384.06851	965.75085	-846.08612	-890.35492	983.05994	-851.71210	-406.92392	780.28668	-748.44104	-894.72693	794.71167	-723.56799	-535.71844	837.05835	-684.09930	-784.19458	832.70599	-706.64099	-643.42657	909.42853	-907.69928	-549.25708	423.62677	-644.11572	-791.07483	393.20593	-806.31274	-570.92181	92.45555	-648.68927				
255	2.540	-578.39868	1487.85376	-593.11792	-640.15417	1582.23364	-879.00140				-705.07001	1515.38586	-678.66333	-437.99417	1303.63196	-829.34900	-802.93573	1323.04602	-811.23596	-615.51794	1213.16980	-671.60205	-625.96552	1359.07983	-871.57538	-382.48352	967.33521	-839.54053	-890.24298	984.55145	-841.57458	-403.10648	782.59576	-737.87128	-895.63623	796.11884	-714.62537	-534.51074	837.47119	-674.64111	-782.74677	834.69794	-696.55109	-642.68811	910.20099	-897.85052	-548.35126	423.43335	-639.38416	-791.94958	393.40518	-785.27631	-570.22565	92.22141	-648.31329				
256	2.550	-576.90619	1488.92358	-584.06982	-639.44232	1583.57947	-870.15454				-704.40088	1517.28699	-669.86053	-437.19357	1305.25000	-821.96344	-802.24139	1323.86975	-801.19324	-614.82971	1215.16382	-662.49701	-625.41187	1359.88831	-862.42157	-380.06369	968.27783	-829.14819	-890.36340	986.18152	-833.03375	-400.14426	783.91815	-727.60004	-896.10651	797.22675	-705.72101	-532.47229	837.39978	-667.14178	-782.09857	837.18872	-686.94086	-641.93854	911.09760	-889.27936	-547.03107	424.07364	-636.13043	-794.49854	394.22458	-764.27930	-570.09851	92.22535	-648.25476				
257	2.560	-575.71387	1490.77356	-575.38086	-638.62012	1584.92322	-861.43445				-702.92249	1518.03003	-660.28125	-436.93320	1305.83752	-813.86145	-802.08795	1324.72278	-792.07336	-612.93640	1215.59631	-654.37543	-624.72662	1360.94080	-853.62158	-378.25180	968.77667	-819.24579	-890.69177	986.96204	-822.81763	-398.45602	784.91119	-716.90643	-896.06757	798.30945	-695.54156	-531.24860	837.31799	-658.15222	-778.78168	836.18726	-675.91760	-641.12323	911.47522	-879.92285	-545.96082	423.33087	-633.29401	-795.08221	395.35330	-742.93591	-569.70581	92.47661	-647.88336				
258	2.570	-573.43695	1491.56458	-566.04816	-637.92963	1585.90564	-852.11749				-702.20337	1520.10962	-651.59076	-435.78006	1306.48621	-803.31366	-800.81500	1325.42395	-783.11444	-612.47028	1215.98608	-644.60956	-624.12061	1361.87061	-844.58887	-376.63177	970.14728	-810.13141	-891.13757	987.78387	-813.39984	-395.55026	786.80945	-706.56830	-895.57990	798.58313	-686.98566	-529.99353	837.40973	-650.87213	-779.10443	837.49915	-668.37323	-640.52435	911.46051	-871.52466	-546.81860	423.99448	-628.77380	-793.56952	395.53287	-721.02509	-569.11823	92.29224	-647.21753				
259	2.580	-574.81470	1489.28723	-561.40546	-637.25391	1586.95239	-843.55792				-701.07007	1521.88708	-642.63666	-435.09723	1307.73901	-796.19556	-800.22363	1326.15222	-773.74597	-611.29602	1215.67407	-635.80121	-623.51392	1362.94727	-835.54449	-374.52048	971.34882	-799.72217	-891.70013	988.32440	-803.68921	-392.96088	787.65076	-695.58813	-896.26416	798.97351	-677.78265	-529.09106	837.75226	-642.73260	-777.93640	838.10791	-658.29852	-639.78436	912.05432	-863.29041	-545.40674	423.55402	-624.91272	-792.86371	397.42358	-699.74603	-569.55957	91.90613	-646.45197				
260	2.590	-573.33966	1490.03870	-553.43726	-636.66016	1587.75818	-834.85730				-700.81616	1522.12207	-634.12390	-434.58365	1307.61963	-784.99347	-800.14581	1326.34021	-764.06128	-610.86871	1215.74365	-627.45886	-623.04456	1363.89539	-827.06824	-372.24033	971.59033	-789.96680	-892.16925	988.74518	-794.17804	-390.28143	789.66510	-685.28662	-896.15125	800.11755	-666.94751	-528.37390	837.17389	-635.13690	-776.68372	838.81555	-649.27911	-639.13086	912.91406	-855.18652	-544.53809	423.17743	-620.93488	-795.70209	400.24402	-679.25531	-569.56531	91.40253	-645.63782				
261	2.600	-572.88647	1489.46155	-544.60162	-636.12885	1588.51111	-826.24628				-699.41791	1523.15991	-624.60126	-434.32306	1308.78003	-777.54877	-799.11853	1326.56079	-754.84827	-609.74243	1215.99573	-618.18365	-622.71918	1364.53186	-817.84100	-370.35471	972.61713	-779.58575	-892.39935	989.17279	-784.57080	-388.86981	790.75562	-674.72821	-896.30145	800.31219	-657.07690	-526.37000	837.52258	-626.68066	-775.83734	839.86499	-640.52710	-638.96820	912.99225	-847.14154	-543.48431	422.02090	-616.98193	-794.69629	402.45645	-658.51990	-570.03607	90.99281	-643.49115				
262	2.610	-571.43585	1490.30481	-536.65015	-635.41864	1589.63110	-816.86566				-697.45685	1523.08337	-615.28076	-434.06964	1309.67017	-769.72754	-798.88336	1326.90002	-745.88397	-608.87146	1215.85559	-611.09167	-622.46631	1365.35083	-809.47644	-369.07788	974.54254	-769.09918	-892.43073	989.52527	-774.62592	-385.57941	792.16498	-663.30695	-897.14471	800.91437	-650.19617	-525.48669	837.95276	-619.35468	-776.54230	841.26758	-632.10834	-638.68640	913.38416	-838.85919	-543.54785	422.43210	-614.34106	-792.46143	404.17343	-637.55487	-569.72113	90.71215	-642.88885				
263	2.620	-569.87701	1491.42236	-528.11731	-634.77448	1590.60864	-807.87427				-697.21631	1524.45142	-606.96289	-433.50018	1310.96838	-760.80817	-798.83771	1327.13110	-736.56433	-608.15430	1215.43262	-602.85834	-622.24115	1366.38501	-800.88379	-367.28992	975.11481	-758.13910	-893.95471	990.91315	-766.44696	-384.53015	794.12878	-653.10974	-895.56140	801.99200	-640.03107	-524.94061	838.41827	-612.36792	-776.17670	841.72198	-624.69080	-638.26276	914.51147	-831.70984	-543.97327	421.98148	-610.90588	-792.86853	408.07245	-617.95636	-570.56390	90.66258	-642.46808				
